<?xml version="1.0" standalone="no"?>
<!DOCTYPE svg PUBLIC "-//W3C//DTD SVG 20010904//EN"
 "http://www.w3.org/TR/2001/REC-SVG-20010904/DTD/svg10.dtd">
<svg version="1.0" xmlns="http://www.w3.org/2000/svg"
 width="1120.000000pt" height="1120.000000pt" viewBox="0 0 1120.000000 1120.000000"
 preserveAspectRatio="xMidYMid meet">

<g transform="translate(0.000000,1120.000000) scale(0.100000,-0.100000)"
fill="#000000" stroke="none">
<path d="M0 5600 l0 -5600 5600 0 5600 0 0 5600 0 5600 -5600 0 -5600 0 0
-5600z m5700 3165 c58 -30 35 -76 -70 -148 -25 -16 -55 -39 -67 -50 -12 -10
-26 -16 -32 -13 -5 4 -13 1 -17 -5 -4 -8 -3 -9 4 -5 7 4 12 4 12 -1 0 -15 -70
-64 -82 -57 -6 4 -8 3 -5 -3 6 -9 -54 -76 -64 -71 -2 2 -3 1 -2 -1 5 -9 -20
-31 -28 -25 -5 3 -8 0 -7 -8 2 -7 -3 -12 -10 -10 -8 1 -11 -2 -8 -7 6 -9 -12
-28 -26 -30 -5 -1 -7 -3 -5 -5 1 -2 -7 -13 -17 -25 -15 -17 -22 -19 -29 -9 -6
9 -7 8 -3 -5 6 -19 -18 -52 -37 -52 -6 0 -12 -7 -14 -15 -4 -13 -3 -13 6 0 6
8 11 11 11 6 0 -6 -8 -19 -19 -30 -51 -57 -193 -281 -183 -291 4 -4 0 -5 -8
-3 -10 2 -14 -4 -13 -20 2 -13 -1 -21 -6 -18 -5 3 -12 -1 -15 -10 -4 -10 -2
-13 7 -9 6 4 5 1 -4 -7 -9 -7 -21 -26 -27 -43 -12 -30 -12 -29 -6 8 7 49 -12
41 -22 -8 -3 -19 -12 -39 -20 -46 -8 -6 -14 -24 -14 -40 0 -32 -26 -41 -37
-13 -8 21 23 84 42 84 11 0 15 10 14 33 -1 21 -3 25 -6 12 -3 -11 -16 -31 -29
-44 -20 -20 -25 -21 -30 -7 -9 22 -114 23 -114 1 0 -11 -11 -15 -40 -15 l-40
0 0 -40 0 -40 -40 0 c-29 0 -40 4 -40 15 0 12 -16 15 -80 15 l-80 0 0 -30 c0
-28 -2 -30 -40 -30 -31 0 -40 4 -41 18 -1 9 -5 -1 -9 -23 l-7 -40 -3 40 -2 40
-12 -50 c-11 -46 -13 -32 -19 165 -12 361 -11 468 4 483 40 39 132 107 144
107 8 0 15 4 15 9 0 10 122 91 137 91 6 0 13 4 15 9 2 4 35 24 73 43 230 115
446 182 675 212 219 28 330 31 370 11z m2014 -68 c54 -31 79 -79 72 -141 -6
-54 -19 -69 -53 -61 -21 5 -28 -3 -24 -27 2 -13 -17 -9 -21 4 -5 14 -77 13
-92 -2 -5 -5 -14 -10 -20 -10 -5 0 -1 6 10 14 18 14 18 15 -10 26 -16 6 -39 9
-50 8 -17 -2 -21 2 -21 24 1 14 -4 24 -9 21 -16 -10 2 70 22 97 51 69 126 87
196 47z m-1094 -282 l0 -95 -32 1 c-27 0 -29 2 -13 8 18 8 20 16 17 75 -3 57
-6 66 -23 66 -10 0 -19 4 -19 8 0 15 24 32 47 32 22 0 23 -3 23 -95z m270
-239 c0 -72 3 -85 18 -89 9 -3 -5 -5 -32 -6 -27 0 -46 2 -42 7 4 4 13 7 19 7
8 0 13 23 15 63 3 60 2 63 -18 57 -25 -8 -27 12 -2 31 36 28 42 18 42 -70z
m-910 -6 c0 -50 4 -80 11 -80 5 0 7 -4 4 -10 -8 -13 -62 -13 -70 -1 -3 6 2 14
10 19 12 6 15 21 13 63 -2 45 -6 54 -20 51 -10 -2 -18 2 -18 7 0 13 30 30 53
31 15 0 17 -10 17 -80z m1184 5 c-5 -66 -4 -75 11 -75 9 0 15 -5 13 -11 -2 -6
-7 -10 -11 -10 -4 1 -21 1 -39 1 -28 0 -30 1 -14 13 25 18 20 123 -6 119 -10
-2 -18 2 -18 7 0 13 30 30 53 31 16 0 17 -7 11 -75z m-554 -10 c0 -43 4 -75
10 -75 6 0 10 -4 10 -10 0 -12 -67 -13 -74 -1 -3 5 1 12 10 15 21 8 16 120 -6
122 -32 3 -34 5 -20 14 8 5 27 10 43 10 l27 0 0 -75z m-962 36 c3 -15 -1 -22
-9 -19 -7 2 -14 14 -16 27 -2 15 1 21 9 19 7 -3 15 -15 16 -27z m166 7 c32
-46 5 -98 -51 -98 -23 0 -53 34 -53 60 0 30 30 60 60 60 18 0 34 -8 44 -22z
m-164 -89 c0 -31 -4 -48 -10 -44 -5 3 -10 26 -10 51 0 24 5 44 10 44 6 0 10
-23 10 -51z m338 -121 c7 -7 12 -40 12 -78 0 -71 -10 -90 -46 -90 -50 0 -54 7
-54 90 0 53 4 80 13 83 23 10 63 7 75 -5z m336 -4 c11 -29 6 -130 -7 -148 -9
-12 -23 -17 -47 -14 l-35 3 -3 74 c-2 41 -1 80 2 88 8 19 82 17 90 -3z m304
-68 c3 -86 -2 -96 -50 -96 -17 0 -31 7 -38 19 -11 22 -14 144 -3 155 4 4 25 6
48 4 l40 -3 3 -79z m290 6 c2 -46 -2 -79 -9 -88 -14 -17 -61 -18 -77 -2 -13
13 -17 150 -5 162 4 4 25 6 48 4 l40 -3 3 -73z m276 -6 c-2 -86 -9 -98 -59
-94 l-30 3 -7 80 c-3 44 -4 84 -1 88 3 4 26 7 51 5 l47 -3 -1 -79z m276 64 c3
-4 3 -41 0 -81 -4 -66 -8 -75 -30 -86 -20 -10 -29 -10 -45 1 -17 11 -20 26
-23 90 -3 72 -1 77 20 86 24 10 69 4 78 -10z m-1815 -70 c0 -41 4 -81 9 -88
11 -18 -1 -29 -17 -13 -6 6 -12 37 -12 69 l0 57 -35 -3 c-20 -2 -47 1 -60 7
-22 8 -19 10 23 10 29 1 46 5 42 11 -10 16 2 27 27 26 22 -1 23 -5 23 -76z
m655 -229 l5 -73 75 -19 c116 -30 270 -112 403 -215 l57 -45 0 57 c0 41 -5 60
-17 69 -19 14 -9 35 17 35 27 0 29 -6 31 -102 2 -81 3 -85 23 -81 17 4 18 3 6
-6 -12 -8 5 -30 90 -118 221 -228 356 -476 440 -807 22 -85 32 -111 48 -117
10 -4 56 -52 100 -106 191 -231 322 -395 391 -488 41 -55 107 -140 146 -190
39 -49 125 -157 190 -240 65 -82 144 -181 175 -220 162 -199 208 -336 164
-485 -27 -93 -96 -174 -187 -222 -40 -22 -51 -23 -297 -23 l-255 0 -68 33
c-86 43 -175 131 -247 245 -117 187 -251 387 -258 387 -4 0 -29 -43 -57 -96
-55 -106 -146 -231 -165 -226 -6 1 -8 -2 -5 -8 11 -17 -195 -210 -224 -210 -6
0 -11 -4 -11 -8 0 -5 -18 -20 -40 -35 -23 -14 -38 -22 -35 -17 12 19 -4 10
-34 -21 -19 -19 -37 -29 -47 -25 -8 3 -12 2 -9 -4 3 -6 4 -10 1 -10 -2 0 -13
-3 -23 -6 -15 -5 -16 -4 -3 6 12 9 10 10 -10 4 -31 -8 -39 -15 -22 -21 18 -7
-72 -50 -183 -88 -16 -6 -17 -5 -5 4 12 9 9 10 -15 5 -43 -9 -68 -26 -30 -19
28 5 28 4 -5 -8 -36 -15 -100 -12 -100 4 0 5 -18 9 -41 9 -33 0 -40 -3 -37
-17 3 -14 13 -18 46 -17 23 0 42 -4 42 -9 0 -6 -3 -8 -6 -4 -3 3 -18 1 -32 -4
-16 -6 -29 -6 -35 0 -5 5 -17 7 -26 4 -12 -4 -13 -3 -3 5 9 6 -4 8 -38 6 -29
-1 -55 -6 -58 -10 -4 -4 5 -4 20 0 15 3 30 2 33 -4 3 -5 20 -10 37 -10 42 0
33 -6 -22 -14 -31 -4 -40 -3 -30 4 12 7 8 10 -15 10 -45 0 -75 11 -75 26 0 8
-4 14 -10 14 -6 0 -10 32 -10 75 l0 75 -30 0 c-28 0 -30 2 -30 40 0 30 4 40
16 40 14 0 14 2 3 16 -12 14 -14 14 -20 -3 -4 -10 -8 -34 -10 -53 -1 -34 -2
-34 -10 10 -4 25 -7 61 -7 80 1 32 2 31 8 -10 5 -30 7 -3 7 80 -1 114 -1 118
-7 45 -4 -50 -7 17 -8 183 -2 258 4 312 30 296 6 -4 8 -3 5 2 -3 6 39 57 94
114 205 214 287 323 368 486 56 114 82 187 113 316 20 83 22 119 22 343 0 222
-2 261 -22 353 -67 305 -189 505 -470 765 -57 54 -65 83 -37 137 21 41 63 60
135 60 57 0 60 1 60 24 0 13 3 38 6 55 5 24 3 31 -10 31 -22 0 -21 27 2 33 32
8 37 0 42 -72z m310 -12 c0 -46 4 -79 10 -79 6 0 10 -4 10 -10 0 -5 -21 -10
-47 -9 -43 0 -45 2 -25 11 21 10 23 17 20 77 -3 56 -6 66 -20 63 -11 -2 -18 3
-18 12 0 14 44 27 63 18 4 -2 7 -39 7 -83z m-660 72 c0 -5 -9 -7 -20 -4 -11 3
-20 7 -20 9 0 2 9 4 20 4 11 0 20 -4 20 -9z m930 -65 c0 -41 3 -81 6 -90 5
-12 -1 -16 -24 -16 -17 0 -34 5 -37 10 -3 6 1 10 9 10 13 0 16 13 16 65 0 58
-2 65 -20 65 -22 0 -27 15 -7 23 6 3 22 6 35 6 21 1 22 -3 22 -73z m308 -13
l-3 -88 -45 0 -45 0 -3 74 c-2 41 -1 80 2 88 3 8 22 13 51 13 l46 0 -3 -87z
m-1516 -30 c3 -49 1 -89 -3 -91 -5 -2 -6 -21 -3 -43 5 -31 3 -39 -9 -39 -25 0
-25 7 -11 178 6 61 6 62 -20 62 -14 0 -26 5 -26 10 0 6 15 10 34 10 l33 0 5
-87z m1783 3 l0 -80 -30 -7 c-20 -6 -36 -4 -52 7 -20 12 -23 23 -23 73 0 86 4
93 59 89 l46 -3 0 -79z m-2645 20 c0 -3 -4 -8 -10 -11 -5 -3 -10 -1 -10 4 0 6
5 11 10 11 6 0 10 -2 10 -4z m-3 -88 c-3 -8 -6 -5 -6 6 -1 11 2 17 5 13 3 -3
4 -12 1 -19z m1148 12 c-3 -5 -12 -7 -20 -3 -21 7 -19 13 6 13 11 0 18 -4 14
-10z m-1158 -72 c-3 -8 -6 -5 -6 6 -1 11 2 17 5 13 3 -3 4 -12 1 -19z m1168
-178 c8 0 15 -4 15 -10 0 -5 -18 -10 -40 -10 -22 0 -40 5 -40 11 0 5 4 8 9 5
12 -8 21 18 21 64 0 48 -8 70 -26 70 -26 0 -14 29 14 32 l27 3 3 -82 c2 -65 6
-83 17 -83z m1214 156 c8 -9 11 -43 9 -93 l-3 -78 -39 -3 c-24 -2 -42 2 -47
10 -5 7 -9 50 -9 96 l0 82 39 0 c21 0 44 -6 50 -14z m262 -16 c16 -9 19 -22
19 -80 0 -87 -5 -100 -40 -100 -57 0 -60 5 -60 95 0 57 4 85 13 88 21 9 47 7
68 -3z m297 -112 l3 -88 -45 0 c-31 0 -46 5 -50 16 -8 22 -8 149 1 158 4 4 25
6 48 4 l40 -3 3 -87z m-3758 -57 c14 -26 3 -50 -26 -57 -45 -11 -75 43 -36 65
27 16 50 13 62 -8z m3180 -156 c0 -58 4 -77 15 -81 23 -9 9 -21 -22 -20 l-28
1 3 73 c4 71 -2 84 -26 60 -9 -9 -12 -7 -12 9 0 23 12 31 48 32 21 1 22 -3 22
-74z m260 -25 c0 -47 4 -80 10 -80 6 0 10 -4 10 -10 0 -5 -16 -10 -35 -10 -19
0 -35 5 -35 10 0 6 5 10 10 10 6 0 10 27 10 60 0 47 -3 60 -15 60 -21 0 -19
28 3 33 41 11 42 9 42 -73z m750 -10 c0 -53 4 -90 10 -90 6 0 10 -4 10 -9 0
-11 -70 -20 -76 -9 -3 4 2 11 10 14 12 5 16 22 16 75 0 62 -2 69 -20 69 -18 0
-19 2 -8 20 7 11 23 20 35 20 22 0 23 -3 23 -90z m-422 -8 c2 -79 1 -83 -23
-94 -19 -8 -31 -8 -50 0 -24 11 -25 16 -25 90 0 43 3 82 7 86 4 4 25 6 48 4
l40 -3 3 -83z m-4000 -46 c-2 -14 -11 -22 -29 -24 -35 -4 -45 22 -17 42 26 19
50 10 46 -18z m274 -129 c9 -17 7 -24 -12 -39 -40 -33 -87 15 -50 52 22 22 45
17 62 -13z m-1241 13 c37 -20 63 -104 41 -136 -33 -48 -114 -58 -159 -20 -22
19 -28 32 -28 66 0 35 6 47 33 71 34 30 77 38 113 19z m450 -19 c33 -33 38
-75 14 -120 -16 -32 -33 -41 -76 -41 -41 0 -66 15 -84 50 -23 44 -18 69 19
106 44 44 86 46 127 5z m4189 -71 c0 -62 3 -82 15 -86 30 -12 14 -24 -29 -24
-47 0 -72 16 -34 22 21 3 23 9 26 67 3 54 1 63 -12 58 -11 -5 -16 0 -16 13 0
16 12 24 43 29 4 0 7 -35 7 -79z m310 -4 c0 -58 4 -86 13 -89 6 -2 0 -8 -15
-12 -16 -4 -36 -4 -45 0 -17 6 -17 7 0 16 13 8 17 24 17 76 0 60 -1 65 -20 60
-13 -3 -20 0 -20 8 0 12 18 19 58 24 9 1 12 -22 12 -83z m430 -5 c0 -44 3 -86
6 -95 5 -12 0 -16 -22 -16 -22 0 -25 3 -16 12 7 7 12 40 12 80 0 54 -3 68 -15
68 -18 0 -20 16 -2 23 33 14 37 7 37 -72z m-4412 -97 c2 -11 -4 -26 -12 -33
-31 -26 -71 14 -45 45 17 21 53 14 57 -12z m3982 -144 c0 -66 3 -80 16 -80 8
0 12 -4 9 -10 -3 -5 -21 -10 -40 -10 -19 0 -37 5 -40 10 -3 6 1 10 9 10 13 0
16 12 16 60 0 53 -2 60 -20 60 -27 0 -25 28 3 33 48 9 47 11 47 -73z m440 -12
c0 -40 3 -82 6 -93 4 -17 0 -20 -25 -21 -29 -2 -43 10 -22 18 9 3 14 45 12
105 -1 24 -5 31 -16 27 -9 -4 -15 0 -15 9 0 16 14 25 43 26 15 1 17 -9 17 -71z
m-3612 -795 l2 -703 -25 0 -25 0 0 706 0 705 23 -3 22 -3 3 -702z m3386 606
c32 -38 33 -60 4 -93 -51 -56 -138 -26 -138 48 0 76 84 105 134 45z m-5134
-34 c42 -38 31 -118 -19 -148 -42 -25 -84 -21 -120 9 -56 47 -37 144 32 162
37 10 82 0 107 -23z m393 24 c82 -42 71 -163 -16 -184 -34 -9 -91 19 -106 51
-32 71 7 134 87 143 7 0 23 -4 35 -10z m4956 -36 l-1 -48 -10 34 c-5 18 -7 40
-4 47 10 27 16 14 15 -33z m-3 -90 c-11 -11 -19 6 -11 24 8 17 8 17 12 0 3
-10 2 -21 -1 -24z m-4158 -55 c3 -22 -2 -30 -22 -39 -31 -14 -56 2 -56 36 0
30 9 36 45 33 24 -2 31 -8 33 -30z m4172 -173 c0 -76 3 -97 15 -101 24 -10 6
-24 -30 -24 -37 0 -56 16 -31 26 23 9 23 154 1 154 -8 0 -15 6 -15 14 0 13 9
17 53 25 4 0 7 -42 7 -94z m-4445 10 c0 -24 -5 -31 -24 -33 -32 -5 -54 23 -40
50 7 13 19 18 37 16 23 -2 27 -8 27 -33z m4907 -411 c53 -27 75 -113 43 -173
-16 -32 -69 -61 -110 -61 -106 0 -170 132 -101 209 45 50 102 58 168 25z
m-4497 -264 c0 -20 -6 -26 -28 -28 -29 -4 -44 16 -33 44 4 10 15 14 33 12 22
-2 28 -8 28 -28z m858 -21 c9 -11 17 -26 17 -33 0 -6 -6 -2 -12 9 -12 22 -28
35 -42 35 -6 0 -5 -5 2 -12 7 -7 12 -21 11 -32 0 -21 0 -21 -9 -1 -5 11 -9 14
-9 7 -1 -9 -6 -10 -18 -3 -13 7 -23 5 -35 -6 -29 -26 -34 10 -7 41 28 32 74
30 102 -5z m-2093 -99 c0 -5 -5 -10 -11 -10 -5 0 -7 5 -4 10 3 6 8 10 11 10 2
0 4 -4 4 -10z m519 -48 c12 -23 -11 -62 -38 -62 -21 0 -41 19 -41 40 0 39 61
56 79 22z m-554 -22 c-7 -23 35 -77 46 -58 7 10 9 10 9 1 0 -7 12 -13 26 -13
16 0 34 -10 46 -25 11 -14 26 -25 34 -25 7 0 37 -25 66 -56 29 -30 71 -72 92
-92 22 -20 106 -104 189 -185 133 -133 149 -152 144 -176 -7 -34 5 -58 20 -39
23 30 25 42 4 23 l-22 -19 7 29 c9 40 13 43 30 21 12 -17 12 -23 -2 -44 -56
-86 -147 -170 -223 -206 l-66 -31 -212 -3 c-252 -4 -307 6 -388 68 -99 76
-150 177 -150 295 0 113 51 229 157 357 155 188 171 206 185 201 8 -3 11 -13
8 -23z m2148 -163 c14 -36 -3 -37 -343 -35 l-333 3 -8 23 -8 22 343 0 c278 0
345 -3 349 -13z m765 -339 l-3 -23 -522 -3 -523 -2 0 25 0 25 526 0 525 0 -3
-22z m-1150 -10 c-4 -28 -39 -36 -57 -14 -18 21 -5 36 30 36 26 0 30 -3 27
-22z m1157 -258 c4 -11 3 -24 0 -30 -8 -13 -731 -14 -739 -1 -4 5 -3 16 0 25
7 19 56 22 441 24 281 1 292 0 298 -18z m-27 -232 c7 -7 12 -20 12 -31 0 -18
-9 -19 -205 -15 -212 3 -232 7 -218 45 7 18 393 19 411 1z m282 -38 c0 -5 -12
-10 -27 -10 -22 0 -25 2 -13 10 20 13 40 13 40 0z m49 -24 c-9 -8 -99 -13 -99
-5 0 5 23 9 52 9 28 0 49 -2 47 -4z m-24 -26 c-3 -5 -18 -10 -33 -9 l-27 1 25
8 c35 11 42 11 35 0z m58 3 c-7 -2 -19 -2 -25 0 -7 3 -2 5 12 5 14 0 19 -2 13
-5z m-3162 -522 c32 -33 36 -58 14 -100 -16 -32 -33 -41 -77 -41 -38 0 -88 48
-88 85 0 38 50 85 90 85 22 0 41 -9 61 -29z m282 -99 c15 -16 17 -57 19 -323
l3 -304 184 -3 c202 -3 221 -8 221 -62 0 -49 -7 -50 -261 -50 -208 0 -238 2
-250 17 -11 13 -14 83 -14 359 0 322 1 343 19 363 23 26 57 27 79 3z m1654 -4
c17 -20 262 -514 326 -661 l22 -49 -28 -24 c-16 -13 -34 -24 -42 -24 -23 0
-51 37 -91 121 l-38 79 -187 0 -187 0 -17 -49 c-8 -26 -29 -69 -45 -95 -24
-37 -35 -46 -58 -46 -35 0 -52 16 -52 51 0 22 218 518 288 656 34 65 73 80
109 41z m1505 -50 c35 -40 118 -138 185 -218 66 -80 150 -176 186 -215 l66
-70 1 268 c0 253 1 268 20 287 27 27 65 26 84 -2 14 -19 16 -71 16 -366 l0
-343 -25 -24 c-51 -52 -38 -64 -443 409 -57 67 -106 123 -109 126 -2 3 -4
-105 -3 -240 1 -135 1 -255 1 -267 -1 -29 -43 -57 -71 -48 -45 14 -50 51 -50
405 0 317 1 331 20 350 33 33 54 24 122 -52z m890 55 c17 -15 18 -40 18 -369
l0 -353 -27 -20 c-28 -23 -59 -20 -80 7 -10 12 -13 101 -13 368 l0 353 22 15
c29 21 57 20 80 -1z m400 -65 c41 -46 129 -148 196 -228 66 -80 146 -172 176
-205 l55 -60 1 268 c0 253 1 268 20 287 25 25 55 25 79 1 19 -19 20 -35 18
-370 -2 -344 -2 -351 -24 -372 -45 -45 -59 -32 -388 355 l-160 189 -5 -264
c-3 -145 -9 -270 -13 -276 -5 -7 -23 -13 -42 -13 -65 0 -65 3 -65 392 l0 347
22 15 c12 9 30 16 39 16 10 0 50 -37 91 -82z m1301 39 c67 -33 137 -93 137
-116 0 -15 -34 -49 -56 -55 -16 -5 -34 4 -70 34 -122 100 -289 94 -399 -15
-176 -174 -54 -467 195 -468 36 -1 83 5 105 13 82 27 164 105 180 172 l7 26
-141 4 c-151 3 -161 7 -161 55 0 45 31 53 211 53 177 0 184 -2 203 -54 9 -26
-11 -121 -36 -170 -26 -51 -113 -138 -164 -164 -101 -51 -265 -56 -366 -9 -79
35 -148 103 -189 184 -32 63 -34 73 -34 167 1 121 20 171 99 254 92 97 184
134 323 129 71 -3 92 -8 156 -40z m-6353 14 c70 -27 130 -78 165 -142 30 -54
30 -55 30 -214 0 -129 -3 -167 -17 -197 -26 -57 -102 -133 -161 -159 -50 -23
-62 -24 -282 -24 l-230 0 -63 29 c-76 35 -134 97 -157 167 -13 37 -17 87 -17
194 0 143 0 144 33 205 37 70 91 117 163 142 42 14 87 17 268 18 191 0 224 -2
268 -19z m1695 -5 c18 -27 7 -69 -20 -80 -9 -3 -102 -6 -206 -6 l-189 0 0
-100 0 -100 169 0 c184 0 201 -5 201 -55 0 -48 -28 -55 -207 -48 l-163 6 0
-116 0 -117 202 0 c173 0 204 -2 220 -17 22 -20 23 -42 2 -71 -15 -22 -18 -22
-263 -22 -187 0 -251 3 -259 13 -6 7 -11 145 -13 358 -3 282 -1 349 10 362 12
15 42 17 257 17 l244 0 15 -24z m1590 -4 c130 -60 183 -176 139 -305 -20 -58
-81 -113 -141 -129 -24 -6 -43 -12 -43 -15 0 -2 38 -51 85 -109 47 -58 85
-110 85 -117 0 -27 -31 -57 -59 -57 -32 0 -49 17 -156 162 l-80 108 -102 0
-103 0 0 -118 c0 -136 -10 -156 -71 -150 -57 5 -59 16 -59 383 0 288 2 333 16
354 16 23 16 23 228 19 195 -3 215 -5 261 -26z"/>
<path d="M5159 8193 c-13 -16 -12 -17 4 -4 9 7 17 15 17 17 0 8 -8 3 -21 -13z"/>
<path d="M5050 8029 c-7 -11 -10 -23 -7 -25 2 -2 9 7 15 21 14 30 7 33 -8 4z"/>
<path d="M5000 7989 c0 -5 5 -7 10 -4 6 3 10 8 10 11 0 2 -4 4 -10 4 -5 0 -10
-5 -10 -11z"/>
<path d="M5930 7920 c0 -53 2 -60 20 -60 18 0 20 7 20 60 0 53 -2 60 -20 60
-18 0 -20 -7 -20 -60z"/>
<path d="M6260 7920 c0 -53 2 -60 20 -60 18 0 20 7 20 60 0 53 -2 60 -20 60
-18 0 -20 -7 -20 -60z"/>
<path d="M6560 7920 c0 -53 2 -60 20 -60 18 0 20 7 20 60 0 53 -2 60 -20 60
-18 0 -20 -7 -20 -60z"/>
<path d="M6850 7919 c0 -52 2 -60 18 -57 13 2 18 15 20 61 3 52 1 57 -18 57
-18 0 -20 -6 -20 -61z"/>
<path d="M7121 7923 c-1 -57 9 -76 36 -66 9 3 13 24 13 64 0 55 -1 59 -24 59
-22 0 -23 -4 -25 -57z"/>
<path d="M7406 7973 c-3 -3 -6 -33 -6 -65 0 -50 3 -58 19 -58 34 0 45 102 12
119 -10 6 -21 7 -25 4z"/>
<path d="M6579 4259 l-24 -21 25 15 c14 8 35 17 45 20 18 4 18 5 -1 6 -12 0
-32 -8 -45 -20z"/>
<path d="M6440 4229 c0 -12 50 -16 65 -5 12 9 7 11 -25 11 -22 0 -40 -3 -40
-6z"/>
<path d="M6408 4213 c7 -3 16 -2 19 1 4 3 -2 6 -13 5 -11 0 -14 -3 -6 -6z"/>
<path d="M7130 7725 c-14 -17 -8 -101 8 -117 20 -20 32 3 32 62 0 61 -17 83
-40 55z"/>
<path d="M7392 7648 c3 -55 5 -63 23 -63 18 0 20 8 23 63 3 61 2 62 -23 62
-25 0 -26 -1 -23 -62z"/>
<path d="M7130 7409 c0 -62 2 -70 18 -67 14 3 18 16 20 71 3 62 1 67 -18 67
-18 0 -20 -6 -20 -71z"/>
<path d="M7396 7444 c-3 -9 -3 -38 0 -65 5 -39 10 -49 26 -49 17 0 19 7 16 62
-2 49 -7 64 -19 66 -9 2 -19 -5 -23 -14z"/>
<path d="M7698 7433 c-15 -4 -18 -16 -18 -69 0 -57 2 -64 20 -64 18 0 20 7 20
70 0 39 -1 69 -2 69 -2 -1 -11 -3 -20 -6z"/>
<path d="M7687 7164 c-10 -10 -8 -96 2 -113 5 -8 16 -11 25 -8 23 9 19 120 -4
125 -9 1 -19 0 -23 -4z"/>
<path d="M4928 5363 c7 -3 16 -2 19 1 4 3 -2 6 -13 5 -11 0 -14 -3 -6 -6z"/>
<path d="M2847 5203 c-11 -20 -17 -64 -8 -59 5 4 12 2 16 -4 8 -13 25 -13 25
0 0 6 -7 10 -15 10 -11 0 -13 8 -8 30 5 28 0 40 -10 23z"/>
<path d="M3122 4651 c-45 -38 -13 -121 46 -121 35 0 49 10 60 41 28 73 -49
131 -106 80z"/>
<path d="M2862 3567 c-37 -39 -23 -86 32 -107 68 -25 117 64 60 109 -35 27
-65 27 -92 -2z m68 -7 c13 -8 13 -10 1 -10 -12 0 -12 -3 -3 -12 7 -7 12 -25
12 -40 0 -23 -4 -28 -25 -28 -32 0 -52 42 -36 77 11 25 27 29 51 13z"/>
<path d="M2890 3518 c0 -29 2 -31 15 -17 9 9 13 23 9 32 -10 28 -24 19 -24
-15z"/>
<path d="M2910 3489 c0 -5 5 -7 10 -4 6 3 10 8 10 11 0 2 -4 4 -10 4 -5 0 -10
-5 -10 -11z"/>
<path d="M4853 3305 c-6 -17 -35 -82 -63 -145 -28 -63 -54 -121 -57 -127 -4
-10 27 -13 136 -13 l140 0 -18 43 c-10 23 -43 94 -73 157 -54 113 -54 115 -65
85z"/>
<path d="M2195 3300 c-11 -4 -31 -20 -45 -35 -23 -24 -25 -36 -28 -130 -4
-117 7 -153 61 -185 28 -18 51 -20 202 -20 166 0 171 1 208 25 45 31 52 54 51
175 -1 106 -10 132 -57 160 -29 18 -51 20 -202 19 -93 0 -179 -4 -190 -9z"/>
<path d="M5557 3373 c-2 -5 -2 -65 1 -135 l4 -128 137 0 c158 0 204 10 244 53
26 28 29 37 25 84 -9 105 -64 132 -265 133 -78 0 -144 -3 -146 -7z"/>
</g>
</svg>
